<?xml version="1.0" encoding="UTF-8"?>
<svg width="44px" height="45px" viewBox="0 0 44 45" version="1.1" xmlns="http://www.w3.org/2000/svg" xmlns:xlink="http://www.w3.org/1999/xlink">
    <!-- Generator: Sketch 63 (92445) - https://sketch.com -->
    <title>编组 3</title>
    <desc>Created with Sketch.</desc>
    <g id="页面-1" stroke="none" stroke-width="1" fill="none" fill-rule="evenodd">
        <g id="专辑背景1" transform="translate(-682.000000, -197.000000)" fill="#FFFFFF" fill-rule="nonzero">
            <g id="编组-3" transform="translate(682.000000, 198.000000)">
                <g id="fenxiang-5" transform="translate(2.000000, 2.000000)">
                    <path d="M20.0097543,0.0242052023 L20.040327,0.0242052023 C21.0478233,0.0407785405 21.8594653,0.862581286 21.8594653,1.87391618 C21.8594653,2.89550217 21.0313403,3.72362717 20.0097543,3.72362717 L20.0071351,3.72362717 L20.0097543,3.72362717 C11.0199603,3.72362717 3.73229769,11.0112897 3.73229769,20.0010838 C3.73229769,28.9908779 11.0199603,36.2785405 20.0097543,36.2785405 C28.9995484,36.2785405 36.287211,28.9908779 36.287211,20.0010838 L36.2862175,19.8777547 L36.287211,19.8777547 C36.287211,18.8562139 37.115336,18.0280437 38.136922,18.0280437 C39.1585079,18.0280437 39.9866329,18.8562139 39.9866329,19.8777547 C39.9866329,19.8880058 39.9866329,19.8981665 39.9866329,19.9083725 L39.9866329,19.8776644 C39.9866329,19.918759 39.9866329,19.9598988 39.9866329,20.0010838 C39.9866329,31.0340047 31.0426752,39.9779624 20.0097543,39.9779624 C8.97683345,39.9779624 0.0328757225,31.0340047 0.0328757225,20.0010838 C0.0328757225,8.97882045 8.95953757,0.0415010838 19.9777366,0.0242052023 C19.9884393,0.0242052023 19.9990968,0.0242052023 20.0097543,0.0242052023 Z M31.9039017,5.74056178 L31.934655,5.77239884 L35.321035,9.35942016 C35.6575596,9.71585983 35.8275831,10.1758038 35.8257465,10.6369671 L35.8255058,10.6602691 C35.8257465,10.6704751 35.8257465,10.6806358 35.8257465,10.6908869 C35.8257465,11.2467486 35.5805184,11.7453486 35.1924223,12.0844021 L32.1469924,16.0759122 C31.5273212,16.8880961 30.3666004,17.0441203 29.5544165,16.4245394 C28.753703,15.8135387 28.5907243,14.676707 29.1801391,13.866465 L29.2058797,13.8319635 L30.1910676,12.5405527 L26.1754426,12.5405527 C23.1413927,12.5405527 20.6760748,14.975569 20.6270773,17.9979678 L20.6263096,18.0897309 L20.6263096,23.8952312 C20.6263096,24.9168172 19.7981846,25.7449422 18.7765986,25.7449422 C17.7679733,25.7449422 16.9478866,24.9376355 16.9273392,23.9339324 L16.9268876,23.8952312 L16.9268876,18.089776 C16.9268876,13.0330112 20.985233,8.92413295 26.0225343,8.84244039 L26.1754426,8.8412211 L29.7442197,8.84117594 L29.2446261,8.31204841 C28.5535134,7.57997652 28.5762283,6.43235188 29.2879787,5.72805275 L29.3198609,5.69725434 C30.0519328,5.00609646 31.1995574,5.02881142 31.9038566,5.74060694 L31.9039017,5.74056178 Z" id="形状"></path>
                </g>
            </g>
        </g>
    </g>
</svg>