<?xml version="1.0" encoding="UTF-8"?>
<svg width="32px" height="32px" viewBox="0 0 32 32" version="1.1" xmlns="http://www.w3.org/2000/svg" xmlns:xlink="http://www.w3.org/1999/xlink">
    <!-- Generator: Sketch 63 (92445) - https://sketch.com -->
    <title>weibiaoti--</title>
    <desc>Created with Sketch.</desc>
    <g id="页面-1" stroke="none" stroke-width="1" fill="none" fill-rule="evenodd">
        <g id="首页" transform="translate(-24.000000, -2610.000000)" fill="#888888" fill-rule="nonzero">
            <g id="编组-20" transform="translate(24.000000, 2149.000000)">
                <g id="weibiaoti--" transform="translate(0.000000, 461.000000)">
                    <path d="M1.30434783,21.9225543 C1.30434783,22.4188914 1.56914048,22.8775257 1.99898097,23.1256943 C2.42882147,23.3738628 2.9584068,23.3738628 3.38824729,23.1256943 C3.81808778,22.8775257 4.08288043,22.4188914 4.08288043,21.9225543 C4.08288043,21.1552838 3.46088472,20.533288 2.69361413,20.533288 C1.92634354,20.533288 1.30434783,21.1552838 1.30434783,21.9225543 Z" id="路径"></path>
                    <path d="M6.23641304,27.8736413 C6.23641304,28.3699784 6.50120569,28.8286127 6.93104618,29.0767813 C7.36088668,29.3249498 7.89047202,29.3249498 8.32031251,29.0767813 C8.75015301,28.8286127 9.01494565,28.3699784 9.01494565,27.8736413 C9.01494565,27.1063707 8.39294994,26.484375 7.62567935,26.484375 C6.85840875,26.484375 6.23641304,27.1063707 6.23641304,27.8736413 L6.23641304,27.8736413 Z" id="路径"></path>
                    <path d="M15.9646739,0.0203804348 C7.16032609,0.0203804348 0.0203804348,7.15692935 0.0203804348,15.9646739 C0.0203804348,18.3084239 0.526494565,20.5366848 1.43682065,22.5407609 L3.95720109,21.3383152 C3.2201087,19.6976902 2.8125,17.8804348 2.8125,15.9646739 C2.8125,8.70244565 8.69904891,2.8125 15.9646739,2.8125 C23.2302989,2.8125 29.1168478,8.69904891 29.1168478,15.9646739 C29.1168478,23.2302989 23.2269022,29.1134511 15.9646739,29.1134511 C13.1827446,29.1134511 10.6012228,28.2506793 8.47826087,26.7764946 L6.73913043,28.7194293 C6.79008152,28.7432065 6.82404891,28.7907609 6.82404891,28.841712 C6.82404891,28.892663 6.83423913,28.9504076 6.78328804,28.9741848 C9.38858696,30.8254076 12.5305707,31.9021739 15.9680707,31.9021739 C24.7724185,31.9021739 31.9123641,24.765625 31.9123641,15.9578804 C31.9123641,7.15013587 24.7690217,0.0203804348 15.9646739,0.0203804348 Z" id="路径"></path>
                    <path d="M15.9646739,8.70923913 C16.732337,8.70923913 17.357337,9.33084239 17.357337,10.1019022 L17.357337,15.9646739 C17.357337,16.732337 16.7357337,17.357337 15.9646739,17.357337 C15.1970109,17.357337 14.5720109,16.7357337 14.5720109,15.9646739 L14.5720109,10.0985054 C14.5720109,9.33084239 15.1970109,8.70923913 15.9646739,8.70923913 L15.9646739,8.70923913 Z" id="路径"></path>
                    <path d="M25.4008152,21.4741848 C25.0169837,22.1399457 24.1644022,22.3675272 23.502038,21.9836957 L15.2921196,17.2418478 C14.6263587,16.8580163 14.3987772,16.0054348 14.7826087,15.3430707 C15.1664402,14.6773098 16.0190217,14.4497283 16.6813859,14.8335598 L24.8913043,19.5720109 C25.5570652,19.9558424 25.7846467,20.8084239 25.4008152,21.4741848 Z" id="路径"></path>
                </g>
            </g>
        </g>
    </g>
</svg>