<?xml version="1.0" encoding="UTF-8"?>
<svg width="32px" height="32px" viewBox="0 0 32 32" version="1.1" xmlns="http://www.w3.org/2000/svg" xmlns:xlink="http://www.w3.org/1999/xlink">
    <!-- Generator: Sketch 63 (92445) - https://sketch.com -->
    <title>编组 12</title>
    <desc>Created with Sketch.</desc>
    <g id="页面-1" stroke="none" stroke-width="1" fill="none" fill-rule="evenodd">
        <g id="首页" transform="translate(-617.000000, -2610.000000)" fill="#888888" fill-rule="nonzero">
            <g id="编组-20" transform="translate(24.000000, 2149.000000)">
                <g id="编组-12" transform="translate(593.000000, 461.000000)">
                    <g id="Icon-guankanliang" transform="translate(0.000000, 4.000000)">
                        <path d="M15.9679878,16.4397866 C17.081936,16.4397866 18.246189,14.6932165 18.246189,12.3391768 C18.246189,9.9851372 17.0815549,8.23856707 15.9679878,8.23856707 C14.8544207,8.23856707 13.6897866,9.9851372 13.6897866,12.3391768 C13.6897866,14.6932165 14.8540396,16.4397866 15.9679878,16.4397866 Z M15.9679878,19.1730183 C13.0556402,19.1730183 10.9565549,16.0240091 10.9565549,12.3387957 C10.9565549,8.65358232 13.0556402,5.50495427 15.9679878,5.50495427 C18.8803354,5.50495427 20.9794207,8.65396341 20.9794207,12.3391768 C20.9794207,16.0243902 18.8803354,19.1730183 15.9679878,19.1730183 Z M15.9679878,21.9070122 C22.4325457,21.9070122 29.1806402,16.1543445 29.1806402,12.3391768 C29.1806402,8.52400915 22.4325457,2.77134146 15.9679878,2.77134146 C9.7038872,2.77134146 2.75533537,8.87919207 2.75533537,12.3391768 C2.75533537,15.7991616 9.7038872,21.9070122 15.9679878,21.9070122 Z M15.9679878,24.640625 C8.26676829,24.640625 0.0213414634,17.3929116 0.0213414634,12.3391768 C0.0213414634,7.28544207 8.26676829,0.0377286585 15.9679878,0.0377286585 C23.8544207,0.0377286585 31.9146341,6.90891768 31.9146341,12.3391768 C31.9146341,17.769436 23.8544207,24.640625 15.9679878,24.640625 Z" id="形状"></path>
                    </g>
                </g>
            </g>
        </g>
    </g>
</svg>