<?xml version="1.0" encoding="UTF-8"?>
<svg width="44px" height="44px" viewBox="0 0 44 44" version="1.1" xmlns="http://www.w3.org/2000/svg" xmlns:xlink="http://www.w3.org/1999/xlink">
    <!-- Generator: Sketch 63 (92445) - https://sketch.com -->
    <title>编组 16</title>
    <desc>Created with Sketch.</desc>
    <g id="页面-1" stroke="none" stroke-width="1" fill="none" fill-rule="evenodd">
        <g id="首页" transform="translate(-24.000000, -62.000000)" fill="#FFFFFF" fill-rule="nonzero">
            <g id="编组-16" transform="translate(24.000000, 62.000000)">
                <g id="xiaoxi-3" transform="translate(3.000000, 3.000000)">
                    <path d="M28.796875,11.4460156 L28.796875,11.4460156 C28.796875,12.6335156 28.203125,13.2272656 27.015625,13.2272656 L10.984375,13.2272656 C9.796875,13.2272656 9.203125,12.6335156 9.203125,11.4460156 L9.203125,11.4460156 C9.203125,10.2585156 9.796875,9.66476562 10.984375,9.66476562 L27.015625,9.66476562 C28.203125,9.66476562 28.796875,10.2585156 28.796875,11.4460156 Z" id="路径"></path>
                    <path d="M22.265625,19.7585156 L22.265625,19.7585156 C22.265625,20.9460156 21.671875,21.5397656 20.484375,21.5397656 L10.984375,21.5397656 C9.796875,21.5397656 9.203125,20.9460156 9.203125,19.7585156 L9.203125,19.7585156 C9.203125,18.5710156 9.796875,17.9772656 10.984375,17.9772656 L20.484375,17.9772656 C21.671875,17.9772656 22.265625,18.5710156 22.265625,19.7585156 Z" id="路径"></path>
                    <path d="M33.25,3.56695312 C33.9058381,3.56695312 34.4375,4.09861498 34.4375,4.75445313 L34.4375,27.3169531 C34.4375,27.9727913 33.9058381,28.5044531 33.25,28.5044531 L18.323125,28.5044531 L17.3553125,29.2585156 L12.765625,32.8210156 L12.765625,28.5044531 L4.75,28.5044531 C4.09416186,28.5044531 3.5625,27.9727913 3.5625,27.3169531 L3.5625,4.75445313 C3.5625,4.09861498 4.09416186,3.56695312 4.75,3.56695312 L33.25,3.56695312 M33.25,0.004453125 L4.75,0.004453125 C2.12664744,0.004453125 0,2.13110056 0,4.75445313 L0,27.3169531 C0,29.9403057 2.12664744,32.0669531 4.75,32.0669531 L9.203125,32.0669531 L9.203125,35.8135156 C9.20312278,36.3751472 9.42663567,36.9136896 9.82432579,37.3102657 C10.2220159,37.7068419 10.7611831,37.9288432 11.3228125,37.927274 C11.8208553,37.9257725 12.3015998,37.7444391 12.6765625,37.4166406 L19.54625,32.0728906 L33.25,32.0728906 C35.8733526,32.0728906 38,29.9462432 38,27.3228906 L38,4.76039063 C38,2.13703806 35.8733526,0.010390625 33.25,0.010390625 L33.25,0.004453125 Z" id="形状"></path>
                </g>
            </g>
        </g>
    </g>
</svg>