<?xml version="1.0" encoding="UTF-8"?>
<svg width="100px" height="101px" viewBox="0 0 100 101" version="1.1" xmlns="http://www.w3.org/2000/svg" xmlns:xlink="http://www.w3.org/1999/xlink">
    <!-- Generator: Sketch 63 (92445) - https://sketch.com -->
    <title>zanting2</title>
    <desc>Created with Sketch.</desc>
    <g id="页面-1" stroke="none" stroke-width="1" fill="none" fill-rule="evenodd">
        <g id="歌曲播放页面" transform="translate(-324.000000, -428.000000)" fill-rule="nonzero">
            <g id="zanting2" transform="translate(324.000000, 429.000000)">
                <path d="M50,0 C77.6145508,0 100,22.3854492 100,50 C100,77.6145508 77.6145508,100 50,100 C22.3854492,100 0,77.6145508 0,50 C0,22.3854492 22.3854492,0 50,0 Z M50,2 C23.4900313,2 2,23.4900313 2,50 C2,76.5099687 23.4900313,98 50,98 C76.5099687,98 98,76.5099687 98,50 C98,23.4900312 76.5099687,2 50,2 Z" id="形状结合" fill="#FFFFFF"></path>
                <path d="M50,2 C23.4900313,2 2,23.4900313 2,50 C2,76.5099687 23.4900313,98 50,98 C76.5099687,98 98,76.5099687 98,50 C98,23.4900312 76.5099687,2 50,2 Z" id="路径" fill="#000000" opacity="0.702055432"></path>
                <path d="M45,65.1216451 C45,67.8041126 42.9750526,70 40.5,70 C38.0249474,70 36,67.805211 36,65.1216451 L36,34.8783549 C36,32.1959658 38.0249474,30 40.5,30 C42.9750526,30 45,32.194789 45,34.8783549 L45,65.1216451 Z" id="路径" fill="#FFFFFF"></path>
                <path d="M63,65.1216451 C63,67.8041126 60.9749899,70 58.5000405,70 C56.025091,70 54,67.805211 54,65.1216451 L54,34.8783549 C54,32.1959658 56.0250101,30 58.5000405,30 C60.9750708,30 63,32.194789 63,34.8783549 L63,65.1216451 Z" id="路径" fill="#FFFFFF"></path>
            </g>
        </g>
    </g>
</svg>