<?xml version="1.0" encoding="UTF-8"?>
<svg width="100px" height="101px" viewBox="0 0 100 101" version="1.1" xmlns="http://www.w3.org/2000/svg" xmlns:xlink="http://www.w3.org/1999/xlink">
    <!-- Generator: Sketch 63 (92445) - https://sketch.com -->
    <title>zanting2备份</title>
    <desc>Created with Sketch.</desc>
    <g id="页面-1" stroke="none" stroke-width="1" fill="none" fill-rule="evenodd">
        <g id="歌曲播放页面" transform="translate(-325.000000, -428.000000)">
            <g id="zanting2备份" transform="translate(325.000000, 429.000000)">
                <path d="M50,0 C77.6145508,0 100,22.3854492 100,50 C100,77.6145508 77.6145508,100 50,100 C22.3854492,100 0,77.6145508 0,50 C0,22.3854492 22.3854492,0 50,0 Z M50,2 C23.4900313,2 2,23.4900313 2,50 C2,76.5099687 23.4900313,98 50,98 C76.5099687,98 98,76.5099687 98,50 C98,23.4900312 76.5099687,2 50,2 Z" id="形状结合" fill="#FFFFFF" fill-rule="nonzero"></path>
                <path d="M50,2 C23.4900313,2 2,23.4900313 2,50 C2,76.5099687 23.4900313,98 50,98 C76.5099687,98 98,76.5099687 98,50 C98,23.4900312 76.5099687,2 50,2 Z" id="路径" fill="#000000" fill-rule="nonzero" opacity="0.702055432"></path>
                <path d="M67.3548641,51.8675124 L44.8672706,69.6049523 C43.7203623,70.5300342 42,69.7256152 42,68.2776609 L42,32.7223391 C42,31.2743848 43.7203623,30.4699658 44.8672706,31.3950477 L67.3548641,49.1727086 C68.2150453,49.8564648 68.2150453,51.1435352 67.3548641,51.8675124 Z" id="路径" fill="#FFFFFF"></path>
            </g>
        </g>
    </g>
</svg>