<?xml version="1.0" encoding="UTF-8"?>
<svg width="32px" height="32px" viewBox="0 0 32 32" version="1.1" xmlns="http://www.w3.org/2000/svg" xmlns:xlink="http://www.w3.org/1999/xlink">
    <!-- Generator: Sketch 57.1 (83088) - https://sketch.com -->
    <title>bofang</title>
    <desc>Created with Sketch.</desc>
    <g id="页面-1" stroke="none" stroke-width="1" fill="none" fill-rule="evenodd">
        <g id="申请歌手下一步" transform="translate(-417.000000, -1072.000000)" fill="#666666" fill-rule="nonzero">
            <g id="bofang" transform="translate(417.000000, 1072.000000)">
                <path d="M16,0 C7.163444,0 0,7.163444 0,16 C0,24.836556 7.163444,32 16,32 C24.836556,32 32,24.836556 32,16 C32,11.7565362 30.3142906,7.68687356 27.3137085,4.6862915 C24.3131264,1.68570945 20.2434638,0 16,0 Z M16,30.3117241 C10.1980588,30.3117241 4.96741415,26.8167191 2.74710739,21.4564244 C0.526800626,16.0961297 1.75408319,9.9261636 5.85667514,5.82357165 C9.9592671,1.72097971 16.1292332,0.493697158 21.4895279,2.71400393 C26.8498226,4.9343107 30.3448276,10.1649554 30.3448276,15.9668966 C30.3448276,23.8893261 23.9224295,30.3117241 16,30.3117241 L16,30.3117241 Z" id="形状"></path>
                <path d="M24.2758621,15.2275862 L12.7889655,8.60689656 C12.6122182,8.5019328 12.4096644,8.44842803 12.2041379,8.45241378 C11.5606511,8.45840008 11.0404691,8.97858217 11.0344301,9.62206897 L11.0344301,22.8634483 C11.0315059,23.1774898 11.1549434,23.4795356 11.3770143,23.7016064 C11.5990851,23.9236773 11.9011309,24.0471148 12.2151724,24.0441379 C12.4206989,24.0481237 12.6232526,23.9946189 12.8,23.8896552 L24.2868966,17.2689655 C24.6493009,17.0556276 24.8708773,16.6656309 24.8686215,16.2451017 C24.8663311,15.8245725 24.6405516,15.4369939 24.2758621,15.2275862 L24.2758621,15.2275862 Z M12.7337931,22.0137931 L12.7337931,10.4937931 L22.72,16.2537931 L12.7337931,22.0137931 Z" id="形状"></path>
            </g>
        </g>
    </g>
</svg>