<?xml version="1.0" encoding="UTF-8"?>
<svg width="44px" height="44px" viewBox="0 0 44 44" version="1.1" xmlns="http://www.w3.org/2000/svg" xmlns:xlink="http://www.w3.org/1999/xlink">
    <!-- Generator: Sketch 63 (92445) - https://sketch.com -->
    <title>编组 6</title>
    <desc>Created with Sketch.</desc>
    <g id="页面-1" stroke="none" stroke-width="1" fill="none" fill-rule="evenodd">
        <g id="曲库" transform="translate(-608.000000, -293.000000)" fill="#888888">
            <g id="编组-6" transform="translate(608.000000, 293.000000)">
                <rect id="矩形" x="33" y="7" width="3.5" height="24" rx="1.75"></rect>
                <rect id="矩形" x="1" y="7" width="26" height="3.5" rx="1.75"></rect>
                <rect id="矩形" x="1" y="18" width="26" height="3.5" rx="1.75"></rect>
                <rect id="矩形" x="1" y="27" width="18" height="3.5" rx="1.75"></rect>
                <rect id="矩形备份" x="33" y="7" width="10" height="3.5" rx="1.75"></rect>
                <g id="qupu" transform="translate(22.000000, 23.000000)">
                    <path d="M7.25,0 C11.2540644,0 14.5,3.24593556 14.5,7.25 C14.5,11.2540644 11.2540644,14.5 7.25,14.5 C3.24593556,14.5 0,11.2540644 0,7.25 C0,3.24593556 3.24593556,0 7.25,0 Z M7.25,3.25 C5.040861,3.25 3.25,5.040861 3.25,7.25 C3.25,9.459139 5.040861,11.25 7.25,11.25 C9.459139,11.25 11.25,9.459139 11.25,7.25 C11.25,5.040861 9.459139,3.25 7.25,3.25 Z" id="形状结合"></path>
                </g>
            </g>
        </g>
    </g>
</svg>