<?xml version="1.0" encoding="UTF-8"?>
<svg width="44px" height="44px" viewBox="0 0 44 44" version="1.1" xmlns="http://www.w3.org/2000/svg" xmlns:xlink="http://www.w3.org/1999/xlink">
    <!-- Generator: Sketch 63 (92445) - https://sketch.com -->
    <title>编组 7</title>
    <desc>Created with Sketch.</desc>
    <g id="页面-1" stroke="none" stroke-width="1" fill="none" fill-rule="evenodd">
        <g id="曲库" transform="translate(-682.000000, -293.000000)" fill="#888888" fill-rule="nonzero">
            <g id="编组-7" transform="translate(682.000000, 293.000000)">
                <g id="bofang-3" transform="translate(1.000000, 1.000000)">
                    <path d="M20.9670209,41.8821998 C9.42676475,41.8821998 0.0290648794,32.4844999 0.0290648794,20.9442437 C0.0290648794,9.40398755 9.42680639,0.00628767449 20.9670626,0.00628767449 C32.5073604,0.00628767449 41.9050186,9.40398755 41.9050186,20.9442437 C41.9050186,32.4844999 32.5073604,41.8821998 20.9670626,41.8821998 L20.9670209,41.8821998 Z M20.9670209,3.14591926 C11.1450904,3.14591926 3.1687381,11.1222716 3.1687381,20.9442437 C3.1687381,30.7662159 11.1450904,38.7425266 20.9670209,38.7425266 C30.7889515,38.7425266 38.7653871,30.7662575 38.7653871,20.9442854 C38.7653871,11.1223132 30.7889931,3.14591926 20.9671042,3.14591926 L20.9670209,3.14591926 Z" id="形状"></path>
                    <path d="M16.3212207,15.8317398 L16.3212207,26.0567477 C16.3212207,27.371996 17.7425682,28.1993457 18.8880909,27.5417215 L27.7342243,22.4292176 C28.879747,21.7715934 28.879747,20.1381306 27.7342243,19.4805064 L18.8880909,14.3679608 C17.7425682,13.7103367 16.3212207,14.5164499 16.3212207,15.8316981 L16.3212207,15.8317398 Z" id="路径"></path>
                </g>
            </g>
        </g>
    </g>
</svg>