<?xml version="1.0" encoding="UTF-8"?>
<svg width="32px" height="32px" viewBox="0 0 32 32" version="1.1" xmlns="http://www.w3.org/2000/svg" xmlns:xlink="http://www.w3.org/1999/xlink">
    <!-- Generator: Sketch 57.1 (83088) - https://sketch.com -->
    <title>choose</title>
    <desc>Created with Sketch.</desc>
    <g id="页面-1" stroke="none" stroke-width="1" fill="none" fill-rule="evenodd">
        <g id="申请歌手下一步" transform="translate(-24.000000, -1351.000000)" fill="#6236FF" fill-rule="nonzero">
            <g id="choose" transform="translate(24.000000, 1351.000000)">
                <path d="M16.0076531,0.00572994924 C7.17584898,0.00572994924 0.0162081633,7.14676548 0.0162081633,15.9556345 C0.0162081633,24.7645036 7.17584898,31.9056041 16.0076531,31.9056041 C24.8394571,31.9056041 31.999098,24.7645685 31.999098,15.9556345 C31.999098,7.14670051 24.8394571,0.00572994924 16.0076531,0.00572994924 Z M24.4161429,11.4037076 L13.7997837,23.0538518 C13.5594856,23.3175572 13.2209837,23.4716502 12.8633216,23.4801484 C12.5056596,23.4886467 12.1601501,23.3508062 11.9074735,23.0988142 L6.85650204,18.0610071 C6.34704898,17.5529056 6.34809388,16.730067 6.85878776,16.2232 C7.36948163,15.7165279 8.19645306,15.7173726 8.70590612,16.2254741 L12.786951,20.2959391 L22.4809265,9.65803452 C22.965498,9.12634721 23.7914898,9.08612792 24.3258245,9.56817462 C24.8602245,10.0502213 24.9007143,10.8720203 24.4161429,11.4037076 Z" id="形状"></path>
            </g>
        </g>
    </g>
</svg>