<?xml version="1.0" encoding="UTF-8"?>
<svg width="274px" height="183px" viewBox="0 0 274 183" version="1.1" xmlns="http://www.w3.org/2000/svg" xmlns:xlink="http://www.w3.org/1999/xlink">
    <!-- Generator: Sketch 63 (92445) - https://sketch.com -->
    <title>编组 10@2x</title>
    <desc>Created with Sketch.</desc>
    <g id="页面-1" stroke="none" stroke-width="1" fill="none" fill-rule="evenodd">
        <g id="热门歌曲榜" transform="translate(-71.000000, -226.000000)" fill="#FFFFFF" fill-rule="nonzero">
            <g id="编组-9" transform="translate(70.000000, 198.000000)">
                <g id="编组-10" transform="translate(1.500000, 28.900000)">
                    <path d="M52.6,49.4 L56.7,38.4 L65.1,41.8 L66.7,30.4 L60.6,27.9 L65.3,15.2 L70.7,15.2 L65.9,49.4 L86.8,49.4 L89,34.2 L84.6,38 L82.7,38 L87.3,5.7 L68.9,5.7 L71,2.13162821e-14 L52,2.13162821e-14 L54.6,3.1 L53.6,5.7 L45.5,5.7 L44.1,15.2 L50.1,15.2 L47.4,22.6 L43.3,20.9 L41.7,32.3 L43.5,33 L37.4,49.4 L52.6,49.4 Z M23,49.4 C24.8666667,49.4 26.55,48.75 28.05,47.45 C29.55,46.15 30.4666667,44.5333333 30.8,42.6 L30.8,42.6 L32.2,32.8 L40,31.4 L41.4,20.9 L33.7,22.2 L34.5,16.1 L42.1,16.1 L43.4,6.6 L35.9,6.6 L36.8,2.13162821e-14 L21.6,2.13162821e-14 L20.6,6.6 L11.1,6.6 L9.8,16.1 L19.3,16.1 L18,24.9 L8.3,26.6 L6.9,37.1 L16.5,35.5 L15.9,40 L7,49.4 L23,49.4 Z M43.7,72 L42.7,53.2 L25.6,53.2 L26.6,72 L43.7,72 Z M64.5,72 L63.5,53.2 L46.4,53.2 L47.4,72 L64.5,72 Z M17.1,72 L23.6,53.2 L6.5,53.2 L8.52651283e-14,72 L17.1,72 Z M85.4,72 L84.4,53.2 L67.3,53.2 L68.3,72 L85.4,72 Z M119.7,15.2 L119.7,1.9 L102.6,1.9 L102.7,15.2 L119.7,15.2 Z M162.9,72 C164.833333,72 166.533333,71.3833333 168,70.15 C169.466667,68.9166667 170.333333,67.3333333 170.6,65.4 L170.6,65.4 L179.3,3.8 L123.3,3.8 L121.9,13.3 L160.8,13.3 L153.9,62.7 L145,72 L162.9,72 Z M110.8,72 L118.5,17.1 L101.4,17.1 L93.7,72 L110.8,72 Z" id="热门"></path>
                    <path d="M84.5,135.4 L87.1,128.3 L88.6,117.6 L68.9,117.6 L71.4,110.1 L56.3,110.1 L57.9,112.6 L50.9,135.2 L63.2,135.2 L65.8,127.2 L76.6,127.2 L73.7,135.4 L84.5,135.4 Z M46.8,140.2 L49.7,119.7 L53.3,119.7 L54.4,111.8 L7.9,111.8 L6.8,119.7 L36.5,119.7 L33.6,140.2 L46.8,140.2 Z M29.7,138.6 L32,122.4 L7.4,122.4 L5.1,138.6 L29.7,138.6 Z M20.5,132.6 L15.3,132.6 L16,127.7 L21.2,127.7 L20.5,132.6 Z M56.3,181.8 L64.8,159.8 L67.2,181.8 L79.8,181.8 L75.2,146.3 L70.1,146.3 L73.9,136.5 L61.1,136.5 L43.3,181.8 L56.3,181.8 Z M34.1,181.9 C36.0333333,181.9 37.75,181.283333 39.25,180.05 C40.75,178.816667 41.6333333,177.233333 41.9,175.3 L41.9,175.3 L45.4,150.1 L50,150.1 L51.2,141.9 L1.8,141.9 L0.6,150.1 L32.3,150.1 L29.1,172.6 L19.3,181.9 L34.1,181.9 Z M23.9,172.6 L26.5,153.6 L3,153.6 L0.4,172.6 L23.9,172.6 Z M15.6,166.4 L10.4,166.4 L11.4,159.3 L16.6,159.3 L15.6,166.4 Z M171.6,179.9 L180,120 L160.1,120 L161.5,110.1 L143.1,110.1 L145.2,113.6 L144.3,120 L138.4,120 L139.8,110.1 L120.7,110.1 L122.8,113.6 L121.9,120 L101.4,120 L93,179.9 L171.6,179.9 Z M140.8,144.7 L134.9,144.7 L137.1,129.2 L143,129.2 L140.8,144.7 Z M118.4,144.7 L113.8,144.7 L116,129.2 L120.6,129.2 L118.4,144.7 Z M161.2,144.7 L156.6,144.7 L158.8,129.2 L163.4,129.2 L161.2,144.7 Z M137.2,170.4 L131.3,170.4 L133.4,155 L139.3,155 L137.2,170.4 Z M157.6,170.4 L153,170.4 L155.1,155 L159.7,155 L157.6,170.4 Z M114.8,170.4 L110.2,170.4 L112.3,155 L116.9,155 L114.8,170.4 Z M204.5,182 L211.6,131.7 L219.5,131.7 L220.9,122.2 L213,122.2 L214.7,110 L199.6,110 L201.6,112.9 L200.3,122.2 L192.3,122.2 L190.9,131.7 L198.9,131.7 L191.8,182 L204.5,182 Z M271.5,123.2 L272.6,115.4 L256.7,115.4 L257.5,110.1 L239.1,110.1 L242.3,113.9 L242.1,115.4 L227,115.4 L225.9,123.2 L271.5,123.2 Z M232.5,144.1 L233.1,139.5 L259.6,139.5 L259,144.1 L271.5,144.1 L273.3,130.9 L264.1,130.9 L267,125.2 L254.6,125.2 L251.6,130.9 L244.9,130.9 L243.6,125.2 L231.1,125.2 L232.4,130.9 L222,130.9 L220.2,144.1 L232.5,144.1 Z M189.6,178.4 L197.3,134.3 L191.4,134.3 L183.6,178.4 L189.6,178.4 Z M214.6,172.7 L218.4,134.3 L212.5,134.3 L208.6,172.7 L214.6,172.7 Z M230.4,182 L237.7,165.1 L253.1,165.1 L251.8,174.6 L245.7,181.1 L259.7,181.1 C260.966667,181.1 262.133333,180.666667 263.2,179.8 C264.266667,178.933333 264.866667,177.833333 265,176.5 L265,176.5 L267.7,157.5 L241,157.5 L241.9,155.5 L269.6,155.5 L270.9,146.1 L253.1,146.1 L253.9,140.8 L238.1,140.8 L237.3,146.1 L219.5,146.1 L218.2,155.5 L228,155.5 L216.5,182 L230.4,182 Z" id="歌曲榜"></path>
                </g>
            </g>
        </g>
    </g>
</svg>