<?xml version="1.0" encoding="UTF-8"?>
<svg width="31px" height="30px" viewBox="0 0 31 30" version="1.1" xmlns="http://www.w3.org/2000/svg" xmlns:xlink="http://www.w3.org/1999/xlink">
    <!-- Generator: Sketch 57.1 (83088) - https://sketch.com -->
    <title>icon_guanli</title>
    <desc>Created with Sketch.</desc>
    <g id="页面-1" stroke="none" stroke-width="1" fill="none" fill-rule="evenodd">
        <g id="词曲作者页面" transform="translate(-465.000000, -381.000000)" fill="#6236FF" fill-rule="nonzero">
            <g id="guanli" transform="translate(465.000000, 381.000000)">
                <path d="M15.355624,0.0345584651 C15.117431,0.0345584651 14.8824569,0.0828294828 14.6635769,0.176141483 L1.08014162,5.99366203 C0.444823709,6.25773724 0.0328319259,6.88019195 0.0380820801,7.56797354 C0.0434333331,8.25575513 0.464970107,8.87179054 1.10428279,9.12604934 L14.6877181,14.6877663 C15.1158216,14.8647373 15.5970357,14.8647373 16.0235299,14.6877663 L29.6069651,9.12604934 C30.245515,8.87193998 30.6667699,8.25686004 30.6728388,7.56984802 C30.6787776,6.88283601 30.2683365,6.26049312 29.6343251,5.99527086 L16.0508899,0.176141483 C15.8306353,0.0821028664 15.5935169,0.0339300099 15.3540146,0.0345584651 L15.355624,0.0345584651 Z M15.3540146,2.504115 L27.1091581,7.53974534 L15.355624,12.3533575 L3.60048044,7.53974534 L15.3540146,2.504115 Z M0.182089853,14.718334 C0.310553661,14.4251861 0.550259325,14.1950643 0.848466388,14.0786006 C1.14667345,13.9621369 1.47895025,13.9688729 1.77218868,14.0973266 L15.8384475,20.2543098 C16.4490899,20.5217576 16.7272254,21.2334107 16.4596804,21.8438314 C16.1921355,22.4542522 15.480224,22.7322867 14.8695816,22.4648389 L0.803322794,16.3078557 C0.510068382,16.1794385 0.279863094,15.9398199 0.163357095,15.641721 C0.046851097,15.3436222 0.0535895516,15.011466 0.182089853,14.718334 L0.182089853,14.718334 Z" id="形状"></path>
                <path d="M14.8744099,20.2736157 L28.9406687,14.1150237 C29.3374764,13.9318607 29.8023355,13.9774347 30.155985,14.2341711 C30.5096345,14.4909075 30.69682,14.9186938 30.6453583,15.3525652 C30.5938966,15.7864366 30.3118281,16.1586048 29.9079251,16.3255528 L15.8416663,22.4841448 C15.4448586,22.6673078 14.9799995,22.6217338 14.62635,22.3649974 C14.2727005,22.108261 14.085515,21.6804747 14.1369767,21.2466033 C14.1884384,20.8127319 14.4705069,20.4405637 14.8744099,20.2736157 L14.8744099,20.2736157 Z M1.72390632,20.5792929 L15.7901651,26.7362761 C16.1851815,26.9092845 16.4578593,27.2798131 16.5054835,27.7082873 C16.5531076,28.1367616 16.3684428,28.5580861 16.0210505,28.8135519 C15.6736582,29.0690178 15.2163156,29.1198136 14.8212993,28.9468052 L0.755040441,22.789822 C0.360024067,22.6168136 0.0873462828,22.246285 0.0397221695,21.8178108 C-0.00790194368,21.3893366 0.17676285,20.9680121 0.524155111,20.7125463 C0.871547371,20.4570804 1.32888995,20.4062845 1.72390632,20.5792929 L1.72390632,20.5792929 Z" id="形状"></path>
                <path d="M29.8821746,22.7914309 L15.8159157,28.948414 C15.2086675,29.1994121 14.5121304,28.9187271 14.2487935,28.3169075 C13.9854566,27.715088 14.2520783,27.0132615 14.8486593,26.7378849 L28.9149181,20.5809018 C29.5221663,20.3299037 30.2187035,20.6105887 30.4820404,21.2124083 C30.7453773,21.8142278 30.4787555,22.5160543 29.8821746,22.7914309 L29.8821746,22.7914309 Z" id="路径"></path>
            </g>
        </g>
    </g>
</svg>