<?xml version="1.0" encoding="UTF-8"?>
<svg width="31px" height="30px" viewBox="0 0 31 30" version="1.1" xmlns="http://www.w3.org/2000/svg" xmlns:xlink="http://www.w3.org/1999/xlink">
    <!-- Generator: Sketch 57.1 (83088) - https://sketch.com -->
    <title>maichu</title>
    <desc>Created with Sketch.</desc>
    <g id="页面-1" stroke="none" stroke-width="1" fill="none" fill-rule="evenodd">
        <g id="歌手页面" transform="translate(-138.000000, -381.000000)" fill="#6236FF" fill-rule="nonzero">
            <g id="maichu" transform="translate(138.000000, 381.000000)">
                <path d="M23.1732225,21.7943325 L9.6759225,21.7943325 C9.09741375,21.7943325 8.59879125,21.387105 8.48363625,20.8203075 L4.1029875,3.42174375 L0.57456,2.27127375 C0.0039825,1.9165275 -0.1709775,1.16636625 0.18376875,0.5956875 C0.53848125,0.0251775 1.28901375,-0.1500525 1.859355,0.20503125 L5.83304625,1.63198125 C6.11734967,1.8086343 6.31622241,2.09470922 6.38276625,2.42274375 L10.6699275,19.361025 L22.3404413,19.361025 L27.9359888,10.8502875 C28.1789888,10.2241575 28.8841613,9.91328625 29.5105275,10.1560838 C30.13659,10.399185 30.4475963,11.10402 30.20463,11.7305213 L24.3073238,21.0175763 C24.1260188,21.4860938 23.6754225,21.7943325 23.1732225,21.7943325 Z M22.2075675,6.21718875 L17.8227,1.25323875 C17.583345,0.982395 17.1920475,0.982395 16.9526925,1.25323875 L12.5669813,6.21718875 C12.3276938,6.4880325 12.4275263,6.70960125 12.7888875,6.70960125 L16.237665,6.70960125 L16.237665,12.2678887 C16.237665,12.6293512 16.5332138,12.9248662 16.8946088,12.9248662 L17.8800075,12.9248662 C18.2414025,12.9248662 18.5369513,12.6293175 18.5369513,12.2678887 L18.5369513,6.70953375 L21.9856275,6.70953375 C22.3471575,6.70953375 22.4468888,6.487965 22.2075675,6.21718875 Z M9.6393375,27.1266975 C9.6393375,28.3188311 10.6057527,29.2852462 11.7978863,29.2852462 C12.9900198,29.2852462 13.956435,28.3188311 13.956435,27.1266975 C13.956435,25.9345639 12.9900198,24.9681487 11.7978863,24.9681487 C10.6057527,24.9681487 9.6393375,25.9345639 9.6393375,27.1266975 L9.6393375,27.1266975 Z M20.8291837,27.1266975 C20.8291837,28.3188311 21.7955989,29.2852462 22.9877325,29.2852462 C24.1798661,29.2852462 25.1462812,28.3188311 25.1462812,27.1266975 C25.1462812,25.9345639 24.1798661,24.9681487 22.9877325,24.9681487 C21.7955989,24.9681487 20.8291837,25.9345639 20.8291837,27.1266975 L20.8291837,27.1266975 Z" id="形状"></path>
            </g>
        </g>
    </g>
</svg>