<?xml version="1.0" encoding="UTF-8"?>
<svg width="84px" height="84px" viewBox="0 0 84 84" version="1.1" xmlns="http://www.w3.org/2000/svg" xmlns:xlink="http://www.w3.org/1999/xlink">
    <!-- Generator: Sketch 57.1 (83088) - https://sketch.com -->
    <title>icon_geshou</title>
    <desc>Created with Sketch.</desc>
    <g id="页面-1" stroke="none" stroke-width="1" fill="none" fill-rule="evenodd">
        <g id="我的页面选择身份" transform="translate(-48.000000, -652.000000)" fill="#ED513B">
            <g id="编组-3" transform="translate(24.000000, 610.000000)">
                <g id="编组" transform="translate(24.000000, 42.000000)">
                    <path d="M42,6.14634146 C61.8014288,6.14634146 77.8536585,22.1985712 77.8536585,42 C77.8536585,61.8014288 61.8014288,77.8536585 42,77.8536585 C22.1985712,77.8536585 6.14634146,61.8014288 6.14634146,42 C6.14634146,22.1985712 22.1985712,6.14634146 42,6.14634146 Z M42,8.38719512 C23.3300814,8.38719512 8.19512195,23.4361605 8.19512195,42 C8.19512195,60.5638395 23.3300814,75.6128049 42,75.6128049 C60.6699186,75.6128049 75.804878,60.5638395 75.804878,42 C75.804878,23.4361605 60.6699186,8.38719512 42,8.38719512 Z" id="形状结合" fill-opacity="0.697579764"></path>
                    <path d="M42,0 C65.1959595,0 84,18.8040405 84,42 C84,65.1959595 65.1959595,84 42,84 C18.8040405,84 0,65.1959595 0,42 C0,18.8040405 18.8040405,0 42,0 Z M42,2.04878049 C19.9355507,2.04878049 2.04878049,19.9355507 2.04878049,42 C2.04878049,64.0644493 19.9355507,81.9512195 42,81.9512195 C64.0644493,81.9512195 81.9512195,64.0644493 81.9512195,42 C81.9512195,19.9355507 64.0644493,2.04878049 42,2.04878049 Z" id="形状结合备份" fill-opacity="0.274530157"></path>
                    <g id="changge" transform="translate(41.963415, 42.987805) scale(-1, 1) translate(-41.963415, -42.987805) translate(22.463415, 20.487805)" fill-rule="nonzero">
                        <path d="M33.872327,37.8128644 C32.0906026,38.2931367 30.0976871,37.9350766 28.6300695,36.7054509 L13.2817258,23.8549518 C13.172446,23.7639544 13.0824239,23.6520646 13.0169328,23.5258366 C12.6211529,23.5653299 12.2236458,23.5850084 11.8259004,23.5847986 C5.3132799,23.5847986 0.0335011512,18.3050199 0.0335011512,11.7923993 C0.0335011512,5.2797788 5.3132799,0 11.8259004,0 C18.338521,0 23.6182998,5.2797788 23.6182998,11.7923993 C23.6182998,12.1944129 23.5979311,12.5921384 23.5593378,12.9834317 C23.6815499,13.0477538 23.7951858,13.1356608 23.8884529,13.2482246 L36.7389521,28.5965684 C38.4906594,30.6881112 38.4735068,33.843114 36.7850496,35.9335848 C36.765753,35.9571696 36.6649816,36.4020647 36.6221001,36.5575099 C35.4760933,40.6430403 32.8892697,42.9554226 29.0535238,43.7433692 C26.1150723,44.3469257 22.7413741,44.0864209 17.7735579,43.1365967 C17.0231325,42.9929438 16.2941478,42.8460749 15.17923,42.6166591 C6.49895207,40.8306466 3.5797972,40.665553 1.87633155,42.4279807 C1.61051367,42.7050418 1.21682059,42.8187879 0.844199153,42.7261851 C0.471577718,42.6335822 0.176932636,42.3487723 0.0717376844,41.9795082 C-0.033457267,41.610244 0.06686271,41.2129175 0.334743318,40.9378503 C1.77556011,39.4477198 3.96144214,38.9331424 6.98136841,39.1046682 C9.11257659,39.2258083 10.6991903,39.5056098 15.6112606,40.51654 C16.7176021,40.7438117 17.4380105,40.8885366 18.1766435,41.0311174 C27.0295193,42.7249348 31.7486231,42.1513953 33.871255,37.8128644 L33.872327,37.8128644 Z M15.5726673,22.976954 L30.0076361,35.0620193 C31.3948511,36.2241066 33.6021739,36.1276234 34.8821852,34.847612 C36.1621965,33.5676007 36.2597518,31.362422 35.0965925,29.973063 L23.0104552,15.5391662 C21.8312573,19.04546 19.0789611,21.7977561 15.5726673,22.976954 Z M11.8259004,21.4407261 C17.1545241,21.4407261 21.4742272,17.121023 21.4742272,11.7923993 C21.4742272,6.46377563 17.1545241,2.14407262 11.8259004,2.14407262 C6.49727681,2.14407262 2.17757392,6.46377571 2.17757392,11.7923993 C2.17757392,17.121023 6.49727681,21.4407261 11.8259004,21.4407261 L11.8259004,21.4407261 Z M21.1065187,22.5888769 L22.622378,21.0730176 L27.1710281,25.6205956 L25.6540967,27.1375269 L21.1065187,22.5888769 L21.1065187,22.5888769 Z" id="形状"></path>
                    </g>
                </g>
            </g>
        </g>
    </g>
</svg>