<?xml version="1.0" encoding="UTF-8"?>
<svg width="84px" height="84px" viewBox="0 0 84 84" version="1.1" xmlns="http://www.w3.org/2000/svg" xmlns:xlink="http://www.w3.org/1999/xlink">
    <!-- Generator: Sketch 57.1 (83088) - https://sketch.com -->
    <title>icon_zuozhe</title>
    <desc>Created with Sketch.</desc>
    <g id="页面-1" stroke="none" stroke-width="1" fill="none" fill-rule="evenodd">
        <g id="我的页面选择身份" transform="translate(-48.000000, -460.000000)" fill="#ED513B">
            <g id="编组-2" transform="translate(24.000000, 418.000000)">
                <g id="编组" transform="translate(24.000000, 42.000000)">
                    <path d="M42,6.14634146 C61.8014288,6.14634146 77.8536585,22.1985712 77.8536585,42 C77.8536585,61.8014288 61.8014288,77.8536585 42,77.8536585 C22.1985712,77.8536585 6.14634146,61.8014288 6.14634146,42 C6.14634146,22.1985712 22.1985712,6.14634146 42,6.14634146 Z M42,8.38719512 C23.3300814,8.38719512 8.19512195,23.4361605 8.19512195,42 C8.19512195,60.5638395 23.3300814,75.6128049 42,75.6128049 C60.6699186,75.6128049 75.804878,60.5638395 75.804878,42 C75.804878,23.4361605 60.6699186,8.38719512 42,8.38719512 Z" id="形状结合" fill-opacity="0.697579764"></path>
                    <path d="M42,0 C65.1959595,0 84,18.8040405 84,42 C84,65.1959595 65.1959595,84 42,84 C18.8040405,84 0,65.1959595 0,42 C0,18.8040405 18.8040405,0 42,0 Z M42,2.04878049 C19.9355507,2.04878049 2.04878049,19.9355507 2.04878049,42 C2.04878049,64.0644493 19.9355507,81.9512195 42,81.9512195 C64.0644493,81.9512195 81.9512195,64.0644493 81.9512195,42 C81.9512195,19.9355507 64.0644493,2.04878049 42,2.04878049 Z" id="形状结合备份" fill-opacity="0.274530157"></path>
                    <g id="changge" transform="translate(20.487805, 20.487805)">
                        <g id="bianji">
                            <path d="M2.79733994,38.9250915 C2.60140244,38.9250915 2.4102439,38.8477591 2.26817835,38.7056936 C2.07824364,38.5160436 2.00461222,38.2390966 2.07528201,37.9801601 C2.41328506,36.7350229 5.43619665,25.7581784 7.45074695,23.743628 L29.5269512,1.66742378 C31.7491692,-0.553490854 35.3620655,-0.5521875 37.5816768,1.66742378 L39.3077515,3.39262957 C40.3830183,4.46833079 40.9760442,5.89854421 40.9760442,7.41999238 C40.9760442,8.94144055 40.3830183,10.3712195 39.3077515,11.4460518 L17.2289405,33.5252973 C15.2152591,35.5385442 4.23884909,38.5610213 2.99371189,38.8990244 C2.92854421,38.9164024 2.86294207,38.9250915 2.79733994,38.9250915 Z M33.5547485,1.4979878 C32.4794817,1.4979878 31.4042149,1.9068064 30.5852744,2.72574695 L8.50907012,24.8019512 C7.3078125,26.0036433 5.2068064,32.3952896 3.87304116,37.1008308 C8.57858232,35.7670655 14.9693598,33.6669284 16.1701829,32.4669741 L38.2485595,10.3877287 C39.0409985,9.59528963 39.4780564,8.54131098 39.4780564,7.41999238 C39.4780564,6.29867378 39.0409985,5.24426067 38.2485595,4.4513872 L36.5224848,2.7261814 C35.7048476,1.9076753 34.6300152,1.4979878 33.5547485,1.4979878 Z M16.723827,33.0251982 L16.7412416,33.0251982 L16.723827,33.0251982 Z" id="形状" stroke="#ED513B" stroke-width="0.6" fill-rule="nonzero"></path>
                            <path d="M36.4590549,13.9819442 C36.2674619,13.9819442 36.0758689,13.9089558 35.9298933,13.7625457 L27.209154,5.0409375 C26.9167683,4.74855183 26.9167683,4.27456555 27.209154,3.98217988 C27.5015396,3.68979421 27.9750915,3.68979421 28.2679116,3.98217988 L36.9886509,12.7042226 C37.2810366,12.9966082 37.2810366,13.4705945 36.9886509,13.7629802 C36.8482039,13.9034048 36.6576609,13.9821854 36.4590549,13.9819442 Z M16.9026677,33.5405038 C16.7110747,33.5405038 16.5194817,33.4675152 16.3735061,33.3211052 L7.65146341,24.5999314 C7.35907774,24.3075457 7.35907774,23.8339939 7.65146341,23.5411738 C7.94384909,23.2483537 8.41740091,23.2487881 8.71022104,23.5411738 L17.4322637,32.2623476 C17.7246494,32.5547332 17.7246494,33.0282851 17.4322637,33.3211052 C17.2919723,33.4618152 17.1013657,33.5407786 16.9026677,33.5405038 L16.9026677,33.5405038 Z" id="形状" stroke="#ED513B" stroke-width="0.6" fill-rule="nonzero"></path>
                            <rect id="矩形" x="0" y="38.9268293" width="40.9756098" height="2.04878049" rx="1"></rect>
                        </g>
                    </g>
                </g>
            </g>
        </g>
    </g>
</svg>