<?xml version="1.0" encoding="UTF-8"?>
<svg width="84px" height="84px" viewBox="0 0 84 84" version="1.1" xmlns="http://www.w3.org/2000/svg" xmlns:xlink="http://www.w3.org/1999/xlink">
    <!-- Generator: Sketch 57.1 (83088) - https://sketch.com -->
    <title>icon_jigou</title>
    <desc>Created with Sketch.</desc>
    <g id="页面-1" stroke="none" stroke-width="1" fill="none" fill-rule="evenodd">
        <g id="我的页面选择身份" transform="translate(-48.000000, -844.000000)" fill="#ED513B">
            <g id="编组-4" transform="translate(24.000000, 802.000000)">
                <g id="编组" transform="translate(24.000000, 42.000000)">
                    <path d="M42,6.14634146 C61.8014288,6.14634146 77.8536585,22.1985712 77.8536585,42 C77.8536585,61.8014288 61.8014288,77.8536585 42,77.8536585 C22.1985712,77.8536585 6.14634146,61.8014288 6.14634146,42 C6.14634146,22.1985712 22.1985712,6.14634146 42,6.14634146 Z M42,8.38719512 C23.3300814,8.38719512 8.19512195,23.4361605 8.19512195,42 C8.19512195,60.5638395 23.3300814,75.6128049 42,75.6128049 C60.6699186,75.6128049 75.804878,60.5638395 75.804878,42 C75.804878,23.4361605 60.6699186,8.38719512 42,8.38719512 Z" id="形状结合" fill-opacity="0.697579764"></path>
                    <path d="M42,0 C65.1959595,0 84,18.8040405 84,42 C84,65.1959595 65.1959595,84 42,84 C18.8040405,84 0,65.1959595 0,42 C0,18.8040405 18.8040405,0 42,0 Z M42,2.04878049 C19.9355507,2.04878049 2.04878049,19.9355507 2.04878049,42 C2.04878049,64.0644493 19.9355507,81.9512195 42,81.9512195 C64.0644493,81.9512195 81.9512195,64.0644493 81.9512195,42 C81.9512195,19.9355507 64.0644493,2.04878049 42,2.04878049 Z" id="形状结合备份" fill-opacity="0.274530157"></path>
                    <g id="gongsiguanli" transform="translate(20.000000, 22.000000)" fill-rule="nonzero">
                        <polygon id="路径" points="10 8.74999998 22.5 8.74999998 22.5 11.25 10 11.25 10 8.74999998"></polygon>
                        <path d="M28.75,7.5 L37.5,7.5 C39.5710678,7.5 41.25,9.17893219 41.25,11.25 L41.25,36.25 L38.75,36.25 L38.75,11.25 C38.75,10.5596441 38.1903559,10 37.5,10 L28.75,10 L28.75,36.25 L26.25,36.25 L26.25,3.75 C26.25,3.05964407 25.6903559,2.5 25,2.5 L7.5,2.5 C6.80964407,2.5 6.25,3.05964407 6.25,3.75 L6.25,36.25 L3.75,36.25 L3.75,3.75 C3.75,1.67893219 5.42893219,0 7.5,0 L25,0 C27.0710678,0 28.75,1.67893219 28.75,3.75 L28.75,7.5 Z" id="路径"></path>
                        <polygon id="路径" points="0 36.25 45 36.25 45 38.75 0 38.75"></polygon>
                    </g>
                </g>
            </g>
        </g>
    </g>
</svg>