<?xml version="1.0" encoding="UTF-8"?>
<svg width="60px" height="60px" viewBox="0 0 60 60" version="1.1" xmlns="http://www.w3.org/2000/svg" xmlns:xlink="http://www.w3.org/1999/xlink">
    <!-- Generator: Sketch 57.1 (83088) - https://sketch.com -->
    <title>icon_renzheng</title>
    <desc>Created with Sketch.</desc>
    <g id="页面-1" stroke="none" stroke-width="1" fill="none" fill-rule="evenodd">
        <g id="词曲作者页面" transform="translate(-170.000000, -578.000000)">
            <g id="编组" transform="translate(170.000000, 578.000000)">
                <circle id="椭圆形" fill="#ED513B" cx="30" cy="30" r="30"></circle>
                <g id="renzheng-2" transform="translate(12.727273, 10.000000)" fill="#FFFFFF" fill-rule="nonzero">
                    <path d="M34.3691565,5.77605631 L32.6689449,5.74961661 C32.6281743,5.74961661 28.8165529,5.67025224 24.8798533,4.14078742 C20.8423382,2.57041594 18.2402752,0.7668492 18.2161937,0.749978598 L17.1918945,0.038193542 L16.1697721,0.749978598 C16.145736,0.766803863 13.5413601,2.5704159 9.50611257,4.14078742 C5.57181655,5.67261049 1.7578369,5.74957128 1.72423175,5.74957128 L0.0144057136,5.77605631 L0.0144057136,22.3619404 C0.0144057136,30.6896667 11.1870046,39.4936699 17.1941621,39.4936699 C23.2037231,39.4936699 34.3764127,30.6896667 34.3764127,22.3619404 L34.3691565,5.77605631 L34.3691565,5.77605631 Z M17.1942074,37.0311522 C12.2042745,37.0311522 2.47692346,29.1120844 2.47692346,22.3618043 L2.47692346,8.1783932 C3.88375903,8.08224894 7.07248345,7.73114094 10.3982588,6.43732028 C13.8058475,5.10984909 16.282787,3.60931824 17.196611,3.02252074 C18.1777361,3.65983933 20.5825219,5.10984909 23.9877524,6.43732028 C27.3255458,7.73354458 30.5214811,8.08224894 31.9090424,8.1783932 L31.9138042,22.3618044 C31.9138042,29.1120844 22.1840949,37.0311522 17.1942074,37.0311522 L17.1942074,37.0311522 Z" id="形状"></path>
                    <path d="M27.4434132,21.3787292 L20.8567145,27.9582624 L18.0961948,24.8272245 C17.6440446,24.3173878 16.8672262,24.269225 16.3574802,24.7166586 C15.8452852,25.1687181 15.797213,25.9454912 16.2492725,26.4553279 L19.8756801,30.5699398 C20.1015738,30.8248129 20.4214349,30.9739272 20.7605702,30.9835416 C20.7750372,30.9859452 20.7870553,30.9859452 20.7992093,30.9859452 C21.1260545,30.9859452 21.4388409,30.8584633 21.6696324,30.6277171 L29.1846676,23.1247 C29.6655704,22.6438426 29.6655704,21.8646205 29.1870712,21.3813142 C28.7058509,20.9000486 27.924452,20.902679 27.4434132,21.3787292 L27.4434132,21.3787292 Z" id="路径"></path>
                    <path d="M20.7075094,23.6122694 C21.2654637,23.037626 21.9484054,22.4363615 22.5231396,21.960266 C21.6983396,21.082496 20.6954461,20.3778764 19.5772247,19.8898082 C20.9239701,18.8509513 21.8064566,17.2349112 21.8064566,15.4071724 C21.8064566,12.268969 19.2526018,9.71502351 16.1143531,9.71502351 C12.9761497,9.71502351 10.4222042,12.2688783 10.4222042,15.4071724 C10.4222042,17.2300587 11.2999288,18.8388879 12.639418,19.8801938 C9.50125999,21.231701 7.29601887,24.3529884 7.29601887,27.9818904 C7.29601887,28.6624739 7.84676224,29.2131719 8.52730041,29.2131719 C9.20779324,29.2131719 9.75849127,28.6624286 9.75849127,27.9818904 C9.75849127,24.4780667 12.6081258,21.6261193 16.1143077,21.6261193 C17.9228177,21.6260739 19.5484721,22.3930966 20.7075094,23.6122694 L20.7075094,23.6122694 Z M16.1144438,12.1775866 C17.8939291,12.1775866 19.3441202,13.6276871 19.3441202,15.4071724 C19.3441202,17.186703 17.8938384,18.6344453 16.1144438,18.6344453 C14.3349585,18.6344453 12.8848126,17.186703 12.8848126,15.4071724 C12.8848126,13.6276417 14.3349585,12.1775866 16.1144438,12.1775866 L16.1144438,12.1775866 Z" id="形状"></path>
                </g>
            </g>
        </g>
    </g>
</svg>