<?xml version="1.0" encoding="UTF-8"?>
<svg width="60px" height="60px" viewBox="0 0 60 60" version="1.1" xmlns="http://www.w3.org/2000/svg" xmlns:xlink="http://www.w3.org/1999/xlink">
    <!-- Generator: Sketch 57.1 (83088) - https://sketch.com -->
    <title>icon_chang</title>
    <desc>Created with Sketch.</desc>
    <g id="页面-1" stroke="none" stroke-width="1" fill="none" fill-rule="evenodd">
        <g id="歌手页面" transform="translate(-111.000000, -578.000000)">
            <g id="编组" transform="translate(111.000000, 578.000000)">
                <circle id="椭圆形" fill="#ED513B" cx="30" cy="30" r="30"></circle>
                <g id="changge" transform="translate(30.000000, 29.500000) scale(-1, 1) translate(-30.000000, -29.500000) translate(14.000000, 11.000000)" fill="#FFFFFF" fill-rule="nonzero" stroke="#FFFFFF" stroke-width="0.5">
                    <path d="M28.0191889,31.2788014 C26.5453465,31.6760826 24.8968068,31.3798953 23.6827935,30.362749 L10.9866435,19.7328161 C10.8962473,19.6575431 10.8217811,19.5649878 10.7676068,19.4605721 C10.4402177,19.4932409 10.1113998,19.509519 9.78238484,19.5093454 C4.39514514,19.5093454 0.0277121523,15.1419124 0.0277121523,9.75467273 C0.0277121523,4.36743303 4.39514514,0 9.78238484,0 C15.1696245,0 19.5370576,4.36743303 19.5370576,9.75467273 C19.5370576,10.0872184 19.5202086,10.4162169 19.4882842,10.7398947 C19.5893781,10.793102 19.6833777,10.8658186 19.7605283,10.9589314 L30.3904612,23.6550814 C31.8394735,25.3852056 31.8252848,27.9950239 30.4285931,29.7242613 C30.4126309,29.7437707 30.3292728,30.1117879 30.2938012,30.2403722 C29.3458244,33.6199229 27.2060039,35.5327255 24.0330749,36.184515 C21.6023878,36.6837769 18.8116646,36.4682873 14.7022871,35.6825928 C14.0815352,35.5637631 13.478519,35.4422732 12.5562591,35.2525004 C5.37593315,33.7751109 2.96120825,33.6385455 1.55210146,35.0964256 C1.33221691,35.3256106 1.00655399,35.4197013 0.69832154,35.3431003 C0.390089089,35.2664992 0.146358676,35.0309045 0.0593414125,34.7254491 C-0.0276758512,34.4199938 0.0553088337,34.0913254 0.276899673,33.8637897 C1.46874332,32.6311538 3.27690494,32.2054954 5.77498795,32.3473815 C7.53792336,32.4475886 8.85037022,32.6790404 12.9136348,33.5152819 C13.8288004,33.703281 14.4247223,33.8229975 15.0357195,33.9409403 C22.3588184,35.3420661 26.262461,34.8676342 28.0183021,31.2788014 L28.0191889,31.2788014 Z M12.8817104,19.0065364 L24.8223166,29.0033024 C25.9698208,29.964581 27.7957182,29.88477 28.8545436,28.8259447 C29.913369,27.7671193 29.9940667,25.9429955 29.0319013,24.7937177 L19.0342485,12.8539983 C18.058816,15.7544045 15.7821166,18.0311039 12.8817104,19.0065364 Z M9.78238484,17.7357686 C14.1902224,17.7357686 17.7634807,14.1625103 17.7634807,9.75467273 C17.7634807,5.3468352 14.1902224,1.77357687 9.78238484,1.77357687 C5.37454738,1.77357687 1.80128915,5.34683527 1.80128915,9.75467273 C1.80128915,14.1625102 5.37454738,17.7357686 9.78238484,17.7357686 L9.78238484,17.7357686 Z M17.4593123,18.685519 L18.7132311,17.4316001 L22.4758744,21.1933566 L21.2210688,22.4481623 L17.4593123,18.685519 L17.4593123,18.685519 Z" id="形状"></path>
                </g>
            </g>
        </g>
    </g>
</svg>