<?xml version="1.0" encoding="UTF-8"?>
<svg width="60px" height="60px" viewBox="0 0 60 60" version="1.1" xmlns="http://www.w3.org/2000/svg" xmlns:xlink="http://www.w3.org/1999/xlink">
    <!-- Generator: Sketch 57.1 (83088) - https://sketch.com -->
    <title>icon_bangzhu</title>
    <desc>Created with Sketch.</desc>
    <g id="页面-1" stroke="none" stroke-width="1" fill="none" fill-rule="evenodd">
        <g id="歌手页面" transform="translate(-579.000000, -578.000000)">
            <g id="编组-3" transform="translate(579.000000, 578.000000)">
                <circle id="椭圆形备份" fill="#0091FF" cx="30" cy="30" r="30"></circle>
                <g id="bangzhu" transform="translate(10.909091, 10.909091)" fill="#FFFFFF" fill-rule="nonzero">
                    <path d="M19.0986222,28.6371307 C17.9694034,28.6371307 17.0543608,29.5525142 17.0543608,30.6812216 C17.0543608,31.809929 17.969446,32.725696 19.0986222,32.725696 C20.2270313,32.725696 21.1418608,31.8100142 21.1418608,30.6812216 C21.1418608,29.552429 20.2269886,28.6371307 19.0986222,28.6371307 L19.0986222,28.6371307 Z" id="路径"></path>
                    <path d="M19.0986222,0.00545454545 C8.57803977,0.00545454545 0.0209659091,8.56338068 0.0209659091,19.0828551 C0.0209659091,29.603054 8.57803977,38.1611932 19.0986222,38.1611932 C29.6177557,38.1611932 38.1760227,29.6030966 38.1760227,19.0828551 C38.1760227,8.56333807 29.6176705,0.00545454545 19.0986222,0.00545454545 Z M19.0986222,35.4235653 C10.0875426,35.4235653 2.75821023,28.0921023 2.75821023,19.082983 C2.75821023,10.0731392 10.0875426,2.74338068 19.0986222,2.74338068 C28.1067614,2.74338068 35.4390341,10.073054 35.4390341,19.082983 C35.4390341,28.0922301 28.1067614,35.4235653 19.0986222,35.4235653 Z" id="形状"></path>
                    <path d="M19.0978125,6.86953125 C15.3415909,6.86953125 12.284233,9.8990625 12.284233,13.6215767 C12.284233,14.3736222 12.8956108,14.9844034 13.6470597,14.9844034 C14.4002557,14.9844034 15.0100568,14.3736648 15.0100568,13.6215767 C15.0100568,11.363608 16.806946,9.5946733 19.0986648,9.5946733 C21.3517756,9.5946733 23.1864205,11.4426562 23.1864205,13.7144318 C23.1864205,14.623125 22.0463778,15.762358 20.9434943,16.8663494 C19.4388494,18.3692045 17.7354545,20.0724716 17.7354545,22.3022727 L17.7354545,24.6062642 C17.7354545,25.3589489 18.3465767,25.9692614 19.0986222,25.9692614 C19.850071,25.9692614 20.4609801,25.3572017 20.4609801,24.6049432 L20.4609801,22.3007812 C20.4609801,21.2010511 21.6848011,19.9773153 22.8703551,18.794446 C24.3649858,17.2998153 25.9122443,15.7541335 25.9122443,13.7140057 C25.9122443,9.93958807 22.8560795,6.86953125 19.0977273,6.86953125 L19.0978125,6.86953125 Z" id="路径"></path>
                </g>
            </g>
        </g>
    </g>
</svg>