<?xml version="1.0" encoding="UTF-8"?>
<svg width="60px" height="60px" viewBox="0 0 60 60" version="1.1" xmlns="http://www.w3.org/2000/svg" xmlns:xlink="http://www.w3.org/1999/xlink">
    <!-- Generator: Sketch 57.1 (83088) - https://sketch.com -->
    <title>编组 3备份</title>
    <desc>Created with Sketch.</desc>
    <g id="页面-1" stroke="none" stroke-width="1" fill="none" fill-rule="evenodd">
        <g id="歌手页面" transform="translate(-345.000000, -578.000000)">
            <g id="编组-3备份" transform="translate(345.000000, 578.000000)">
                <circle id="椭圆形备份" fill="#FFBB24" cx="30" cy="30" r="30"></circle>
                <g id="bianji-2" transform="translate(12.000000, 9.000000)" fill="#FFFFFF" fill-rule="nonzero">
                    <path d="M33.699875,8.614375 L19.94575,0.56375 C18.6633627,-0.186928661 17.0756373,-0.186928661 15.79325,0.56375 L2.04875,8.614375 C0.778105262,9.36102329 -0.00158683525,10.7252228 -2.41753891e-06,12.199 L-2.41753891e-06,29.286125 C-2.41753891e-06,30.78075 0.80025,32.159875 2.094125,32.8955 L15.844125,40.712375 C17.1027941,41.428736 18.6458309,41.428736 19.9045,40.712375 L33.6545,32.8955 C34.9512146,32.156716 35.7513508,30.7785287 35.7500017,29.286125 L35.7500017,12.199 C35.7513006,10.7249418 34.9710483,9.36067771 33.699875,8.614375 Z M33,29.286125 C33,29.783875 32.73325,30.2445 32.3015,30.48925 L18.5515,38.306125 C18.1322076,38.5452913 17.6177924,38.5452913 17.1985,38.306125 L3.4485,30.48925 C3.01626178,30.2429887 2.74954974,29.7835929 2.74999943,29.286125 L2.74999943,12.199 C2.74999943,11.70675 3.009875,11.251625 3.433375,11.004125 L17.177875,2.9535 C17.6050011,2.70324333 18.1339989,2.70324333 18.561125,2.9535 L32.316625,11.0055 C32.740125,11.251625 33,11.70675 33,12.199 L33,29.286125 L33,29.286125 Z" id="形状"></path>
                    <path d="M17.875,12.375 C13.3186508,12.375 9.625,16.0686508 9.625,20.625 C9.625,25.1813492 13.3186508,28.875 17.875,28.875 C22.4313492,28.875 26.125,25.1813492 26.125,20.625 C26.125,16.0686508 22.4313492,12.375 17.875,12.375 Z M17.875,26.125 C14.8374339,26.125 12.375,23.6625661 12.375,20.625 C12.375,17.5874339 14.8374339,15.125 17.875,15.125 C20.9125661,15.125 23.375,17.5874339 23.375,20.625 C23.375,23.6625661 20.9125661,26.125 17.875,26.125 Z" id="形状"></path>
                </g>
            </g>
        </g>
    </g>
</svg>